<svg width="24" height="24" xmlns="http://www.w3.org/2000/svg">
 <defs>
  <style>.cls-1{fill:#e8550d;}.cls-2{fill:#62727b;}</style>
 </defs>
 <title>logotipo-color</title>
 <g>
  <title>background</title>
  <rect fill="none" id="canvas_background" height="26" width="26" y="-1" x="-1"/>
 </g>
 <g>
  <title>Layer 1</title>
  <path stroke="null" id="svg_1" d="m22.411194,20.191395l-21.323197,0c-0.04765,0 -0.082593,0.058176 -0.117536,0.206972a3.811968,2.685042 0 0 0 -0.044473,0.467645l0,1.37049a4.023215,2.833838 0 0 0 0.049238,0.49002c0.030178,0.126421 0.065121,0.183478 0.112771,0.183478l21.323197,0c0.04765,0 0.082593,-0.058176 0.117536,-0.20921l0,0a3.770672,2.655954 0 0 0 0.044473,-0.464288l0,-1.37049a4.058158,2.858451 0 0 0 -0.049238,-0.493376c-0.031766,-0.125302 -0.065121,-0.18124 -0.112771,-0.18124z" class="cls-1"/>
  <path stroke="null" id="svg_2" d="m22.943064,11.712112a3.797154,3.542472 0 0 0 -3.784167,-3.536414l-14.411003,0l0,-3.109318l17.208137,0a0.909109,0.848134 0 0 0 0.70943,-0.283216a0.870147,0.811785 0 0 0 0.264616,-0.628528l0,-1.850749a0.907486,0.846619 0 0 0 -0.300331,-0.661847a0.878264,0.819358 0 0 0 -0.673715,-0.251411l-17.370478,0a3.599098,3.3577 0 0 0 -2.694859,1.060167a3.603968,3.362244 0 0 0 -1.094178,2.480791l0,3.395563a3.793907,3.539443 0 0 0 3.810141,3.528841l14.399639,0l0,3.110833l-17.213008,0a0.917226,0.855706 0 0 0 -0.706183,0.281702a0.889628,0.829959 0 0 0 -0.269486,0.628528l0,1.852263a0.926967,0.864793 0 0 0 0.298707,0.661847a0.886381,0.82693 0 0 0 0.676962,0.248382l17.370478,0a3.779297,3.525812 0 0 0 3.784167,-3.53187l-0.00487,-3.395563z" class="cls-2"/>
 </g>
</svg>