<svg id="Livello_1" data-name="Livello 1" xmlns="http://www.w3.org/2000/svg" viewBox="0 0 136.3 174.91"><defs><style>.cls-1{fill:#e8550d;}.cls-2{fill:#62727b;}</style></defs><title>logotipo-color</title><path class="cls-1" d="M186.06,200.81H51.81c-.3,0-.52.52-.74,1.85a24,24,0,0,0-.28,4.18v12.25a25.33,25.33,0,0,0,.31,4.38c.19,1.13.41,1.64.71,1.64H186.06c.3,0,.52-.52.74-1.87h0a23.74,23.74,0,0,0,.28-4.15V206.84a25.55,25.55,0,0,0-.31-4.41C186.57,201.31,186.36,200.81,186.06,200.81Z" transform="translate(-50.79 -50.2)"/><path class="cls-2" d="M187.08,118.35A23.39,23.39,0,0,0,163.77,95H75V74.47h106a5.6,5.6,0,0,0,4.37-1.87,5.36,5.36,0,0,0,1.63-4.15V56.23a5.59,5.59,0,0,0-1.85-4.37,5.41,5.41,0,0,0-4.15-1.66h-107a22.17,22.17,0,0,0-16.6,7,22.2,22.2,0,0,0-6.74,16.38V96A23.37,23.37,0,0,0,74.13,119.3h88.7v20.54H56.8a5.65,5.65,0,0,0-4.35,1.86,5.48,5.48,0,0,0-1.66,4.15v12.23a5.71,5.71,0,0,0,1.84,4.37,5.46,5.46,0,0,0,4.17,1.64h107a23.28,23.28,0,0,0,23.31-23.32Z" transform="translate(-50.79 -50.2)"/></svg>