<?xml version="1.0" encoding="iso-8859-1"?>
<!-- Generator: Adobe Illustrator 16.0.0, SVG Export Plug-In . SVG Version: 6.00 Build 0)  -->
<!DOCTYPE svg PUBLIC "-//W3C//DTD SVG 1.1//EN" "http://www.w3.org/Graphics/SVG/1.1/DTD/svg11.dtd">
<svg version="1.1" id="Livello_1" xmlns="http://www.w3.org/2000/svg" xmlns:xlink="http://www.w3.org/1999/xlink" x="0px" y="0px"
	 width="237px" height="275px" viewBox="0 0 237 275" style="enable-background:new 0 0 237 275;" xml:space="preserve">
<path style="fill:#FFFFFF;" d="M186.061,200.812H51.812c-0.306,0-0.522,0.516-0.745,1.852c-0.198,1.137-0.282,2.412-0.282,4.176
	v12.248c0,1.783,0.091,3.072,0.317,4.383c0.191,1.131,0.41,1.641,0.709,1.641h134.249c0.299,0,0.523-0.525,0.739-1.869l0,0
	c0.199-1.135,0.285-2.408,0.285-4.154V206.84c0-1.83-0.091-3.074-0.312-4.41C186.574,201.314,186.356,200.812,186.061,200.812z"/>
<g>
	<g>
		<path style="fill:#FFFFFF;" d="M187.084,118.354c0-6.569-2.208-11.851-6.944-16.563c-4.521-4.552-9.88-6.758-16.367-6.758h-88.73
			V74.467h106.033c1.791,0,3.065-0.54,4.371-1.871c1.141-1.102,1.637-2.393,1.637-4.146V56.226c0-1.784-0.521-3.046-1.855-4.368
			c-1.117-1.134-2.406-1.655-4.153-1.655H74.134c-6.598,0-11.875,2.221-16.604,6.952c-4.517,4.558-6.745,9.905-6.745,16.387v22.409
			c0,6.597,2.228,11.867,6.94,16.594c4.533,4.549,9.912,6.757,16.409,6.757h88.697v20.542H56.804c-1.789,0-3.042,0.554-4.353,1.859
			c-1.146,1.144-1.666,2.426-1.666,4.145v12.23c0,1.801,0.558,3.049,1.843,4.367c1.149,1.152,2.44,1.643,4.175,1.643h106.97
			c6.57,0,11.846-2.186,16.578-6.91c4.541-4.555,6.733-9.924,6.733-16.411V118.354z"/>
	</g>
</g>
<rect x="1" style="display:none;fill:#4D4D4D;" width="50" height="50"/>
<rect x="1" y="225" style="display:none;fill:#4D4D4D;" width="50" height="50"/>
<rect x="187" style="display:none;fill:#4D4D4D;" width="50" height="50"/>
<rect x="187" y="225" style="display:none;fill:#4D4D4D;" width="50" height="50"/>
</svg>
